<?xml version="1.0" encoding="utf-8"?>
<!-- Generator: Adobe Illustrator 19.2.1, SVG Export Plug-In . SVG Version: 6.00 Build 0)  -->
<svg version="1.1" id="Layer_1" xmlns="http://www.w3.org/2000/svg" xmlns:xlink="http://www.w3.org/1999/xlink" x="0px" y="0px"
	 viewBox="0 0 1000 1000" style="enable-background:new 0 0 1000 1000;" xml:space="preserve">
<style type="text/css">
	.st0{fill:#FF4F16;}
	.st1{fill:#40191E;}
	.st2{fill:#FFFFFF;}
</style>
<rect x="0" class="st0" width="1000" height="1000"/>
<g>
	<path class="st1" d="M318.5,300.4c7.3,19.7,0.7,35-17.3,41.9c-11.2,4.2-23,2.5-33.4-3.9l2.4-11.4c9.3,5.3,18.7,6.3,26.5,3.4
		c11.1-4.2,14.9-13.2,10.1-25.7l-22.3-59.4l-36.2,13.5l-4.2-11.1l47.9-18L318.5,300.4z"/>
	<path class="st1" d="M477.2,245.8c4.5,30.1-16.7,57.7-47.9,62.4c-31.3,4.6-59.7-15.7-64-45.8c-4.5-30.2,16.9-57.4,48.2-62.1
		C444.5,195.6,472.7,215.7,477.2,245.8z M377.5,260.5c3.5,23.6,26.1,39.5,50,36s40.6-25.1,37.2-48.7c-3.5-23.6-25.8-39.3-49.6-35.8
		C391.1,215.3,374.1,236.9,377.5,260.5z"/>
	<path class="st1" d="M624.5,217l-8.3,8.6c-7.4-9.3-18.7-15.6-30.5-16.7c-24.3-2.4-45.6,14.3-48,38.1c-2.4,23.5,15.2,44.4,39.5,46.9
		c11.8,1.3,23.9-2.5,33.1-9.7l6.7,9.3c-11.7,9-26.7,14-41.6,12.5c-31-3.1-53.2-29.8-50.1-60.2c3.1-30.1,30.3-51.4,61.5-48.3
		C601.5,198.7,615.1,206.2,624.5,217z"/>
	<path class="st1" d="M678.7,297.6l-20.2,21.9l-12.4-4.2l81-86.5l12.1,4.2l10.7,118l-12.8-4.4l-2.5-29.8L678.7,297.6z M728.2,244.1
		l-40.6,44.1l45.9,15.7L728.2,244.1z"/>
</g>
<g>
	<g>
		<path class="st1" d="M554.7,740.3c-0.1,0-0.2,0-0.3,0c-1.7-0.2-2.9-1.7-2.7-3.3s0.2-3.3,0.2-4.9c0-28.6-23.3-51.8-51.8-51.8
			s-51.8,23.3-51.8,51.8c0,1.6,0.1,3.2,0.2,4.8c0.2,1.7-1.1,3.2-2.8,3.3c-1.6,0.1-3.2-1.1-3.3-2.8c-0.2-1.8-0.2-3.5-0.2-5.3
			c0-31.9,26-57.9,57.9-57.9s57.9,26,57.9,57.9c0,1.9-0.1,3.7-0.3,5.5C557.6,739.1,556.2,740.3,554.7,740.3z"/>
	</g>
	<g>
		<path class="st1" d="M749.5,700c-1.5,0-2.8-1.1-3-2.6c-0.2-1.7,0.9-3.2,2.6-3.4l107-15c1.6-0.2,3.2,0.9,3.4,2.6
			c0.2,1.7-0.9,3.2-2.6,3.4l-107,15C749.8,700,749.6,700,749.5,700z"/>
	</g>
	<g>
		<path class="st1" d="M500.1,583.2c-1.7,0-3-1.4-3-3v-31.1c0-1.7,1.4-3,3-3c1.7,0,3,1.4,3,3v31.1
			C503.1,581.8,501.8,583.2,500.1,583.2z"/>
	</g>
	<g>
		<path class="st1" d="M500.1,661.9c-1.7,0-3-1.4-3-3v-63c0-1.7,1.4-3,3-3c1.7,0,3,1.4,3,3v63C503.1,660.5,501.8,661.9,500.1,661.9z
			"/>
	</g>
	<g>
		<path class="st1" d="M563.4,698.4c-1,0-2.1-0.5-2.6-1.5c-0.8-1.5-0.3-3.3,1.1-4.2l75.5-43.6c1.5-0.9,3.3-0.3,4.2,1.1
			c0.8,1.5,0.3,3.3-1.1,4.2L565,698C564.5,698.3,563.9,698.4,563.4,698.4z"/>
	</g>
	<g>
		<path class="st1" d="M328.5,636c-0.5,0-1-0.1-1.5-0.4l-29.2-16.9c-1.5-0.8-2-2.7-1.1-4.2c0.8-1.5,2.7-2,4.2-1.1l29.2,16.9
			c1.5,0.8,2,2.7,1.1,4.2C330.6,635.4,329.5,636,328.5,636z"/>
	</g>
	<g>
		<path class="st1" d="M395.7,674.8c-0.5,0-1-0.1-1.5-0.4l-53.3-30.8c-1.5-0.8-2-2.7-1.1-4.2c0.8-1.5,2.7-2,4.2-1.1l53.3,30.8
			c1.5,0.8,2,2.7,1.1,4.2C397.8,674.2,396.8,674.8,395.7,674.8z"/>
	</g>
	<g>
		<path class="st1" d="M436.7,698.4c-0.5,0-1-0.1-1.5-0.4l-27.3-15.7c-1.5-0.8-2-2.7-1.1-4.2c0.8-1.5,2.7-2,4.2-1.1l27.3,15.7
			c1.5,0.8,2,2.7,1.1,4.2C438.8,697.9,437.8,698.4,436.7,698.4z"/>
	</g>
	<g>
		<path class="st1" d="M440.8,675.8c-0.8,0-1.6-0.3-2.2-0.9L360.7,597c-1.2-1.2-1.2-3.1,0-4.3s3.1-1.2,4.3,0l77.9,77.9
			c1.2,1.2,1.2,3.1,0,4.3C442.4,675.5,441.6,675.8,440.8,675.8z"/>
	</g>
	<g>
		<path class="st1" d="M414.6,587.1c-1.1,0-2.1-0.5-2.6-1.5l-3.1-5.4c-0.8-1.5-0.3-3.3,1.1-4.2c1.5-0.9,3.3-0.3,4.2,1.1l3.1,5.4
			c0.8,1.5,0.3,3.3-1.1,4.2C415.7,586.9,415.2,587.1,414.6,587.1z"/>
	</g>
	<g>
		<path class="st1" d="M463.5,671.7c-1.1,0-2.1-0.5-2.6-1.5l-40.4-69.9c-0.8-1.5-0.3-3.3,1.1-4.2c1.5-0.9,3.3-0.3,4.2,1.1l40.4,69.9
			c0.8,1.5,0.3,3.3-1.1,4.2C464.5,671.5,464,671.7,463.5,671.7z"/>
	</g>
	<g>
		<path class="st1" d="M478.1,653.1c-1.3,0-2.6-0.9-2.9-2.3l-23-86c-0.4-1.6,0.5-3.3,2.2-3.7c1.6-0.4,3.3,0.5,3.7,2.2l23,86
			c0.4,1.6-0.5,3.3-2.2,3.7C478.6,653.1,478.4,653.1,478.1,653.1z"/>
	</g>
	<g>
		<path class="st1" d="M526.4,636.7c-0.3,0-0.5,0-0.8-0.1c-1.6-0.4-2.6-2.1-2.2-3.7l18.6-69.5c0.4-1.6,2.1-2.6,3.7-2.2
			c1.6,0.4,2.6,2.1,2.2,3.7l-18.6,69.5C529,635.8,527.8,636.7,526.4,636.7z"/>
	</g>
	<g>
		<path class="st1" d="M559.4,632.2c-0.5,0-1-0.1-1.5-0.4c-1.5-0.8-2-2.7-1.1-4.2L586,577c0.8-1.5,2.7-2,4.2-1.1
			c1.5,0.8,2,2.7,1.1,4.2l-29.2,50.6C561.5,631.7,560.5,632.2,559.4,632.2z"/>
	</g>
	<g>
		<path class="st1" d="M536.7,671.7c-0.5,0-1-0.1-1.5-0.4c-1.5-0.8-2-2.7-1.1-4.2l15.6-27.1c0.8-1.5,2.7-2,4.2-1.1
			c1.5,0.8,2,2.7,1.1,4.2l-15.6,27.1C538.7,671.1,537.7,671.7,536.7,671.7z"/>
	</g>
	<g>
		<path class="st1" d="M593.3,641.8c-0.8,0-1.6-0.3-2.2-0.9c-1.2-1.2-1.2-3.1,0-4.3l43.9-43.9c1.2-1.2,3.1-1.2,4.3,0s1.2,3.1,0,4.3
			l-43.9,43.9C594.8,641.5,594.1,641.8,593.3,641.8z"/>
	</g>
	<g>
		<path class="st1" d="M558.2,676.9c-0.8,0-1.6-0.3-2.2-0.9c-1.2-1.2-1.2-3.1,0-4.3l25.7-25.7c1.2-1.2,3.1-1.2,4.3,0s1.2,3.1,0,4.3
			L560.4,676C559.8,676.6,559,676.9,558.2,676.9z"/>
	</g>
	<g>
		<path class="st1" d="M651.8,647.4c-1,0-2.1-0.5-2.6-1.5c-0.8-1.5-0.3-3.3,1.1-4.2l49.1-28.4c1.5-0.9,3.3-0.3,4.2,1.1
			c0.8,1.5,0.3,3.3-1.1,4.2L653.3,647C652.8,647.3,652.3,647.4,651.8,647.4z"/>
	</g>
	<g>
		<path class="st1" d="M583.5,723.3c-1.5,0-2.8-1.1-3-2.6c-0.2-1.7,0.9-3.2,2.6-3.4l139.8-19.6c1.6-0.2,3.2,0.9,3.4,2.6
			c0.2,1.7-0.9,3.2-2.6,3.4l-139.8,19.6C583.7,723.3,583.6,723.3,583.5,723.3z"/>
	</g>
	<g>
		<path class="st1" d="M416.7,723.3c-0.1,0-0.3,0-0.4,0l-139.8-19.6c-1.7-0.2-2.8-1.8-2.6-3.4c0.2-1.7,1.7-2.8,3.4-2.6l139.8,19.6
			c1.7,0.2,2.8,1.8,2.6,3.4C419.5,722.2,418.2,723.3,416.7,723.3z"/>
	</g>
	<g>
		<path class="st1" d="M660.4,682.9c-1.3,0-2.5-0.8-2.9-2.1c-0.5-1.6,0.4-3.3,2-3.8L777,638.8c1.6-0.5,3.3,0.4,3.8,2s-0.4,3.3-2,3.8
			l-117.5,38.2C661,682.9,660.7,682.9,660.4,682.9z"/>
	</g>
	<g>
		<path class="st1" d="M250.6,700c-0.1,0-0.3,0-0.4,0l-104.4-14.7c-1.7-0.2-2.8-1.8-2.6-3.4c0.2-1.7,1.7-2.8,3.4-2.6L251,694
			c1.7,0.2,2.8,1.8,2.6,3.4C253.4,698.9,252.1,700,250.6,700z"/>
	</g>
	<g>
		<path class="st1" d="M339.7,682.9c-0.3,0-0.6,0-0.9-0.1l-117.5-38.2c-1.6-0.5-2.5-2.2-2-3.8s2.2-2.5,3.8-2L340.7,677
			c1.6,0.5,2.5,2.2,2,3.8C342.2,682.1,341,682.9,339.7,682.9z"/>
	</g>
	<g>
		<path class="st1" d="M409.9,705.7c-0.3,0-0.6,0-0.9-0.1l-55.8-18.1c-1.6-0.5-2.5-2.2-2-3.8s2.2-2.5,3.8-2l55.8,18.1
			c1.6,0.5,2.5,2.2,2,3.8C412.4,704.9,411.2,705.7,409.9,705.7z"/>
	</g>
	<g>
		<path class="st1" d="M590.2,705.7c-1.3,0-2.5-0.8-2.9-2.1c-0.5-1.6,0.4-3.3,2-3.8l55.8-18.1c1.6-0.5,3.3,0.4,3.8,2s-0.4,3.3-2,3.8
			l-55.8,18.1C590.8,705.7,590.5,705.7,590.2,705.7z"/>
	</g>
	<g>
		<g>
			<path class="st1" d="M747,767.8c-14.3,0-21.5-2.7-28.5-5.3c-6.8-2.5-13.2-4.9-26.4-4.9c-1.7,0-3-1.4-3-3s1.4-3,3-3
				c14.3,0,21.5,2.7,28.5,5.3c6.8,2.5,13.2,4.9,26.4,4.9s19.6-2.4,26.4-4.9c7-2.6,14.2-5.3,28.5-5.3c1.7,0,3,1.4,3,3s-1.4,3-3,3
				c-13.2,0-19.6,2.4-26.4,4.9C768.5,765.1,761.3,767.8,747,767.8z"/>
		</g>
		<g>
			<path class="st1" d="M637.3,767.8c-14.3,0-21.5-2.7-28.5-5.3c-6.8-2.5-13.2-4.9-26.4-4.9s-19.6,2.4-26.4,4.9
				c-7,2.6-14.2,5.3-28.5,5.3s-21.5-2.7-28.5-5.3c-6.8-2.5-13.2-4.9-26.4-4.9c-13.2,0-19.6,2.4-26.4,4.9c-7,2.6-14.2,5.3-28.5,5.3
				c-1.7,0-3-1.4-3-3s1.4-3,3-3c13.2,0,19.6-2.4,26.4-4.9c7-2.6,14.2-5.3,28.5-5.3s21.5,2.7,28.5,5.3c6.8,2.5,13.2,4.9,26.4,4.9
				s19.6-2.4,26.4-4.9c7-2.6,14.2-5.3,28.5-5.3s21.5,2.7,28.5,5.3c6.8,2.5,13.2,4.9,26.4,4.9c1.7,0,3,1.4,3,3
				S638.9,767.8,637.3,767.8z"/>
		</g>
		<g>
			<path class="st1" d="M308,767.8c-14.3,0-21.5-2.7-28.5-5.3c-6.8-2.5-13.2-4.9-26.4-4.9c-13.2,0-19.6,2.4-26.4,4.9
				c-7,2.6-14.2,5.3-28.5,5.3c-1.7,0-3-1.4-3-3s1.4-3,3-3c13.2,0,19.6-2.4,26.4-4.9c7-2.6,14.2-5.3,28.5-5.3s21.5,2.7,28.5,5.3
				c6.8,2.5,13.2,4.9,26.4,4.9c13.2,0,19.6-2.4,26.4-4.9c7-2.6,14.2-5.3,28.5-5.3c1.7,0,3,1.4,3,3s-1.4,3-3,3
				c-13.2,0-19.6,2.4-26.4,4.9C329.5,765.1,322.3,767.8,308,767.8z"/>
		</g>
		<g>
			<path class="st1" d="M856.8,745.3c-14.3,0-21.5-2.7-28.5-5.3c-6.8-2.5-13.2-4.9-26.4-4.9s-19.6,2.4-26.4,4.9
				c-7,2.6-14.2,5.3-28.5,5.3s-21.5-2.7-28.5-5.3c-6.8-2.5-13.2-4.9-26.4-4.9s-19.6,2.4-26.4,4.9c-7,2.6-14.2,5.3-28.5,5.3
				c-7.6,0-13.8-0.8-19.7-2.4c-1.6-0.4-2.6-2.1-2.1-3.7c0.5-1.6,2.1-2.6,3.7-2.1c5.3,1.5,11.1,2.1,18.1,2.1
				c13.2,0,19.6-2.4,26.4-4.9c7-2.6,14.2-5.3,28.5-5.3s21.5,2.7,28.5,5.3c6.8,2.5,13.2,4.9,26.4,4.9s19.6-2.4,26.4-4.9
				c7-2.6,14.2-5.3,28.5-5.3s21.5,2.7,28.5,5.3c6.8,2.5,13.2,4.9,26.4,4.9c1.7,0,3,1.4,3,3S858.4,745.3,856.8,745.3z"/>
		</g>
		<g>
			<path class="st1" d="M527.5,745.3c-14.3,0-21.5-2.7-28.5-5.3c-6.8-2.5-13.2-4.9-26.4-4.9c-13.2,0-19.6,2.4-26.4,4.9
				c-7,2.6-14.2,5.3-28.5,5.3s-21.5-2.7-28.5-5.3c-6.8-2.5-13.2-4.9-26.4-4.9s-19.6,2.4-26.4,4.9c-7,2.6-14.2,5.3-28.5,5.3
				s-21.5-2.7-28.5-5.3c-6.8-2.5-13.2-4.9-26.4-4.9s-19.6,2.4-26.4,4.9c-7,2.6-14.2,5.3-28.5,5.3s-21.5-2.7-28.5-5.3
				c-6.8-2.5-13.2-4.9-26.4-4.9c-1.7,0-3-1.4-3-3c0-1.7,1.4-3,3-3c14.3,0,21.5,2.7,28.5,5.3c6.8,2.5,13.2,4.9,26.4,4.9
				s19.6-2.4,26.4-4.9c7-2.6,14.2-5.3,28.5-5.3s21.5,2.7,28.5,5.3c6.8,2.5,13.2,4.9,26.4,4.9s19.6-2.4,26.4-4.9
				c7-2.6,14.2-5.3,28.5-5.3s21.5,2.7,28.5,5.3c6.8,2.5,13.2,4.9,26.4,4.9s19.6-2.4,26.4-4.9c7-2.6,14.2-5.3,28.5-5.3
				s21.5,2.7,28.5,5.3c6.8,2.5,13.2,4.9,26.4,4.9s19.6-2.4,26.4-4.9c7-2.6,14.2-5.3,28.5-5.3c1.7,0,3,1.4,3,3c0,1.7-1.4,3-3,3
				c-13.2,0-19.6,2.4-26.4,4.9C549,742.6,541.8,745.3,527.5,745.3z"/>
		</g>
		<g>
			<path class="st1" d="M747,790.3c-14.3,0-21.5-2.7-28.5-5.3c-6.8-2.5-13.2-4.9-26.4-4.9s-19.6,2.4-26.4,4.9
				c-7,2.6-14.2,5.3-28.5,5.3s-21.5-2.7-28.5-5.3c-6.8-2.5-13.2-4.9-26.4-4.9s-19.6,2.4-26.4,4.9c-7,2.6-14.2,5.3-28.5,5.3
				s-21.5-2.7-28.5-5.3c-6.8-2.5-13.2-4.9-26.4-4.9c-13.2,0-19.6,2.4-26.4,4.9c-7,2.6-14.2,5.3-28.5,5.3s-21.5-2.7-28.5-5.3
				c-6.8-2.5-13.2-4.9-26.4-4.9s-19.6,2.4-26.4,4.9c-7,2.6-14.2,5.3-28.5,5.3s-21.5-2.7-28.5-5.3c-6.8-2.5-13.2-4.9-26.4-4.9
				c-1.7,0-3-1.4-3-3c0-1.7,1.4-3,3-3c14.3,0,21.5,2.7,28.5,5.3c6.8,2.5,13.2,4.9,26.4,4.9s19.6-2.4,26.4-4.9
				c7-2.6,14.2-5.3,28.5-5.3s21.5,2.7,28.5,5.3c6.8,2.5,13.2,4.9,26.4,4.9s19.6-2.4,26.4-4.9c7-2.6,14.2-5.3,28.5-5.3
				s21.5,2.7,28.5,5.3c6.8,2.5,13.2,4.9,26.4,4.9s19.6-2.4,26.4-4.9c7-2.6,14.2-5.3,28.5-5.3s21.5,2.7,28.5,5.3
				c6.8,2.5,13.2,4.9,26.4,4.9s19.6-2.4,26.4-4.9c7-2.6,14.2-5.3,28.5-5.3s21.5,2.7,28.5,5.3c6.8,2.5,13.2,4.9,26.4,4.9
				c1.7,0,3,1.4,3,3S748.7,790.3,747,790.3z"/>
		</g>
		<g>
			<path class="st1" d="M637.3,812.7c-14.3,0-21.5-2.7-28.5-5.3c-6.8-2.5-13.2-4.9-26.4-4.9c-1.7,0-3-1.4-3-3s1.4-3,3-3
				c14.3,0,21.5,2.7,28.5,5.3c6.8,2.5,13.2,4.9,26.4,4.9s19.6-2.4,26.4-4.9c7-2.6,14.2-5.3,28.5-5.3c1.7,0,3,1.4,3,3s-1.4,3-3,3
				c-13.2,0-19.6,2.4-26.4,4.9C658.8,810,651.5,812.7,637.3,812.7z"/>
		</g>
		<g>
			<path class="st1" d="M527.5,812.7c-14.3,0-21.5-2.7-28.5-5.3c-6.8-2.5-13.2-4.9-26.4-4.9c-13.2,0-19.6,2.4-26.4,4.9
				c-7,2.6-14.2,5.3-28.5,5.3s-21.5-2.7-28.5-5.3c-6.8-2.5-13.2-4.9-26.4-4.9s-19.6,2.4-26.4,4.9c-7,2.6-14.2,5.3-28.5,5.3
				c-1.7,0-3-1.4-3-3c0-1.7,1.4-3,3-3c13.2,0,19.6-2.4,26.4-4.9c7-2.6,14.2-5.3,28.5-5.3s21.5,2.7,28.5,5.3
				c6.8,2.5,13.2,4.9,26.4,4.9s19.6-2.4,26.4-4.9c7-2.6,14.2-5.3,28.5-5.3s21.5,2.7,28.5,5.3c6.8,2.5,13.2,4.9,26.4,4.9
				c1.7,0,3,1.4,3,3C530.6,811.4,529.2,812.7,527.5,812.7z"/>
		</g>
		<g>
			<path class="st1" d="M637.3,835.2c-14.3,0-21.5-2.7-28.5-5.3c-6.8-2.5-13.2-4.9-26.4-4.9s-19.6,2.4-26.4,4.9
				c-7,2.6-14.2,5.3-28.5,5.3s-21.5-2.7-28.5-5.3c-6.8-2.5-13.2-4.9-26.4-4.9c-13.2,0-19.6,2.4-26.4,4.9c-7,2.6-14.2,5.3-28.5,5.3
				s-21.5-2.7-28.5-5.3c-6.8-2.5-13.2-4.9-26.4-4.9c-1.7,0-3-1.4-3-3s1.4-3,3-3c14.3,0,21.5,2.7,28.5,5.3c6.8,2.5,13.2,4.9,26.4,4.9
				c13.2,0,19.6-2.4,26.4-4.9c7-2.6,14.2-5.3,28.5-5.3s21.5,2.7,28.5,5.3c6.8,2.5,13.2,4.9,26.4,4.9s19.6-2.4,26.4-4.9
				c7-2.6,14.2-5.3,28.5-5.3s21.5,2.7,28.5,5.3c6.8,2.5,13.2,4.9,26.4,4.9c1.7,0,3,1.4,3,3S638.9,835.2,637.3,835.2z"/>
		</g>
	</g>
</g>
<g>
	<path class="st2" d="M402.2,406.5l-7,20.5c-11-4.8-24.5-7.4-32.5-6.4c-6.4,0.8-10.5,3.7-9.9,8.4c2,16.9,52.5,1,56.7,36.3
		c2.4,19.5-13.7,31.9-35.4,34.6c-16.3,2-33.8-2.1-46.5-10.2l7.3-20.3c11.1,7.6,26.9,11.6,37,10.4c7.8-0.9,12.3-4.5,11.7-10
		c-2.1-17.3-52.4-0.7-56.6-35.3c-2.2-18,11.9-31.3,35.4-34.1C376.5,398.6,391.4,401.2,402.2,406.5z"/>
	<path class="st2" d="M476.4,413.1l0.2,19.5l46.9-0.5l0.2,19.7l-46.9,0.5l0.2,19.8l53.5-0.5l0.2,19.7l-78.5,0.8l-1-98.3l77-0.8
		l0.2,19.7L476.4,413.1z"/>
	<path class="st2" d="M676.8,454.8c-3.1,28.5-28.1,47.6-58.4,44.3c-30.2-3.3-50.4-27.3-47.3-55.9c3.1-28.5,28.1-47.1,58.2-43.8
		C659.6,402.8,679.9,426.5,676.8,454.8z M596.5,446.1c-1.8,16.5,9.5,30.6,24.4,32.2c15.1,1.7,28.5-9.7,30.3-26.2
		s-8.8-30.2-23.9-31.9C612.2,418.6,598.3,429.7,596.5,446.1z"/>
</g>
</svg>
